<mxfile host="65bd71144e">
    <diagram id="jBV6Qyaq5Pqzc4y3C112" name="Page-1">
        <mxGraphModel dx="1416" dy="478" grid="1" gridSize="10" guides="1" tooltips="1" connect="1" arrows="1" fold="1" page="1" pageScale="1" pageWidth="850" pageHeight="1100" math="0" shadow="0">
            <root>
                <mxCell id="0"/>
                <mxCell id="1" parent="0"/>
                <mxCell id="14" style="edgeStyle=orthogonalEdgeStyle;rounded=0;orthogonalLoop=1;jettySize=auto;html=1;entryX=0;entryY=0.5;entryDx=0;entryDy=0;" edge="1" parent="1" source="13" target="12">
                    <mxGeometry relative="1" as="geometry"/>
                </mxCell>
                <mxCell id="17" style="edgeStyle=orthogonalEdgeStyle;rounded=0;orthogonalLoop=1;jettySize=auto;html=1;entryX=0;entryY=0.5;entryDx=0;entryDy=0;" edge="1" parent="1" source="13" target="16">
                    <mxGeometry relative="1" as="geometry"/>
                </mxCell>
                <mxCell id="13" value="" style="rounded=1;whiteSpace=wrap;html=1;" vertex="1" parent="1">
                    <mxGeometry x="100" y="100" width="120" height="300" as="geometry"/>
                </mxCell>
                <mxCell id="7" style="edgeStyle=orthogonalEdgeStyle;rounded=0;orthogonalLoop=1;jettySize=auto;html=1;entryX=0;entryY=0.5;entryDx=0;entryDy=0;entryPerimeter=0;" edge="1" parent="1" source="2" target="5">
                    <mxGeometry relative="1" as="geometry"/>
                </mxCell>
                <mxCell id="8" style="edgeStyle=orthogonalEdgeStyle;rounded=0;orthogonalLoop=1;jettySize=auto;html=1;entryX=0;entryY=0.5;entryDx=0;entryDy=0;entryPerimeter=0;" edge="1" parent="1" source="2" target="4">
                    <mxGeometry relative="1" as="geometry"/>
                </mxCell>
                <mxCell id="9" style="edgeStyle=orthogonalEdgeStyle;rounded=0;orthogonalLoop=1;jettySize=auto;html=1;entryX=0;entryY=0.5;entryDx=0;entryDy=0;entryPerimeter=0;" edge="1" parent="1" source="2" target="6">
                    <mxGeometry relative="1" as="geometry"/>
                </mxCell>
                <mxCell id="2" value="" style="pointerEvents=1;shadow=0;dashed=0;html=1;strokeColor=none;labelPosition=center;verticalLabelPosition=bottom;verticalAlign=top;outlineConnect=0;align=center;shape=mxgraph.office.concepts.folder;fillColor=#2072B8;" vertex="1" parent="1">
                    <mxGeometry x="-10" y="147.5" width="50" height="45" as="geometry"/>
                </mxCell>
                <mxCell id="3" value="Folder" style="text;html=1;strokeColor=none;fillColor=none;align=center;verticalAlign=middle;whiteSpace=wrap;rounded=0;" vertex="1" parent="1">
                    <mxGeometry x="-5" y="205" width="40" height="20" as="geometry"/>
                </mxCell>
                <mxCell id="4" value="" style="verticalLabelPosition=bottom;html=1;verticalAlign=top;align=center;strokeColor=none;fillColor=#00BEF2;shape=mxgraph.azure.file_2;pointerEvents=1;" vertex="1" parent="1">
                    <mxGeometry x="140" y="220" width="47.5" height="50" as="geometry"/>
                </mxCell>
                <mxCell id="5" value="" style="verticalLabelPosition=bottom;html=1;verticalAlign=top;align=center;strokeColor=none;fillColor=#00BEF2;shape=mxgraph.azure.file_2;pointerEvents=1;" vertex="1" parent="1">
                    <mxGeometry x="140" y="145" width="47.5" height="50" as="geometry"/>
                </mxCell>
                <mxCell id="6" value="" style="verticalLabelPosition=bottom;html=1;verticalAlign=top;align=center;strokeColor=none;fillColor=#00BEF2;shape=mxgraph.azure.file_2;pointerEvents=1;" vertex="1" parent="1">
                    <mxGeometry x="140" y="290" width="47.5" height="50" as="geometry"/>
                </mxCell>
                <mxCell id="10" value="Looks" style="text;html=1;strokeColor=none;fillColor=none;align=center;verticalAlign=middle;whiteSpace=wrap;rounded=0;" vertex="1" parent="1">
                    <mxGeometry x="144" y="350" width="40" height="20" as="geometry"/>
                </mxCell>
                <mxCell id="12" value="" style="shape=image;verticalLabelPosition=bottom;labelBackgroundColor=#ffffff;verticalAlign=top;aspect=fixed;imageAspect=0;image=data:image/png,iVBORw0KGgoAAAANSUhEUgAAAOEAAADhCAMAAAAJbSJIAAAAq1BMVEX///8YWr2XlZPIxsSwr62Qjozr6+vW1tUATbkAT7qTkY/Q2O3c4/LJx8XOzMvS0c+2w+QASbjk5OTAv76ouN/d3dyopqX09vsAU7sASLgMVryElsCsveLq7/jAzek/b8RYf8ofX79liM3X4PG1tLJ8hqCQp9l0ktGZr9xQesguZsHv8/qBnNWdst0bXb6Jotdtjs9tfqaQmrLI0+wANbMAPLU4bMOQosuDlcAgbjGgAAAHj0lEQVR4nO2de1vqOBDGW6Ra8IjUC5QqHAEXr0fdZdez3/+TbVubmSStQDWXYZ95/zqH6YUfySQzk7QGAYvFYrFYLBaLxWJ51uVtx7JG54c+AUdR3zZhpx+d+wPs2OcrFHV9AXbdAObN6AnxMCpu3una08gz4kHehH2rPlL+hqUr+EG8LQit3uEsJ+xfjrwhdosf2OodCsLoMvCG6IzQG6I7Ql+IDgk9Ibok9IPolNALoltCH4iOCT0guiZ0j+ic0Dmie0LXiB4IHSP6IHSL6IXQKaIfQpeInggdIvoidIfojdAZoj9CV4geCR0h+iR0g+iV0AmiX0IXiJ4JHSD6JrSP6J3QOqJ/QtuIBAgtI1IgtItIgtAqIg1Cm4hECC0iUiG0h0iG0BoiHUJbiIQILSFSIrSDSIqwQrw1en/7hMV+mv7BjgeXiLv+HrvJPmFQ7BiKjnY8uNxBNTJ5eweEt2XXi3ZT8XU6kcnbOyAMPr52C0Umd6O6IDxri7h3hMHhKOrvqv0kzBkH5zuqu6eEu+uoz4QtxYTOxYStxYTOxYStxYTOxYStxYTO9QXC6fEm/fVHro1HqPphCQzUlnC8ekniTUoLbTxCVdK7swvZknCYpKFppZNXi4AtCe8nxvkK9W6oEM7sAOaIdzQIxz1LgGE4OSZBeG/eB4WyBxKEj9YAwzB5IkA4tuWFhXozAoQ/EpuE1xQIY4uE6QUTMiETMiETMuFWwqvBiRkNzqgSnhwYkvaCJTKE/xojPFAb8X9IeD6mSfj71JQ0GjKEBMfSRKgO3gNbktVQmk0ECefBuFItq+oNhWkc3GiI6bM4L7iTTQQJJ+jPejtNpHz9l1b56A3BpJQMCBLGmJTr7TSXTlpqfTiB8u9YaXqChCmWcbUKVaqUBrUuHINhrVTuCBJmP8EwU6uMUkfM9aA0cPYOhpXyuxAkDGNwxCe1nRJlHUJt4HygEXqgPpaGMRZx1Y6YKmcdK2dJBSf1ahQJ03uwLOTmyBbqaUoDx0vxsTYEpVenA0MyFtNkN2BRpoT0l3qa0hsnzecQzS16YFnLllhbglBGlEf4eKFOMSRzC2lqk6vhYj4Q/VHGz3Ai0VZ5SLahNDi8YIPALLIS+EnTKXqoR9EPw+wNTG9ICJEAzHzvaMQePNTbkOBYKk8LF+hrIpob/y2Mr2jEYPZOi1dpEiZTYZImPRF2L/8RbjoDY4YR61z/tUgSSuEZeFX2Un0ynAgrjkM4VT7pGRdNQikEe4fPxGj5GoMV0iQMEma1a5EklGa3Z+FWEJY9pI9141p89KovmBMlxKXpazE0wiQZh4kYVmDcRMf9qWfNRAlxaRqizBQ/gBabCkfM4Fq15WSihOkKjJUNgtV8/kDrXDNqCQdhQikLrrodhN15DIDWavJD5Pq+Far10gSM1WgCQUsmWytHxE6tV3bo1rxrUZhI/KeJbJ1+uB0ONPVdHSRzi1Ce4D4iaeiYZekGrVqLN+xbIZlbhEoWXH5pCLvL+Q6tZWSOO7uu6xvkckKa64foiGUqD0XUj4EHrCUS1h/fam5IdSyVs+Cy1aDa/XEoVGXKbolh7Ev9QmQJsXb2UTSt/lPNd/i1Y/nXmDZsHyNLiFlw8bUh7K7KTJhLFFUZKHfPGvapkiWEVitnQGhRUWaCMC0PcTAAeG7Yp0qXEOe4fBaHfihGEvhgmUi51nvDdegS4vCxSiHsBkdDN+3hv8dNuzjpEmLLrHsw/0G6hG56k8VN5cU9IMQseJpADIOOJmoaeawNKzmN28UJE2L5LExEHIqru+Cmxwn8FA/1+b7ILY5MyfReDKxMLAAWS+DophPosI2bqanmFqGS9IkuKeW36KZz0YX1dW/jhKb3ROE0NxTzu+xoUCFdiJD1ovGpDaq5RSFYMDsWrSnntxCprsRQumhyQ4OEJ8b3JmKeK3xObiTINq4FaiMg5bEUSzNP1Zij5LeQMgnSprCbOCHmudUYpuS3sPmiVjzdH0JtZ4K+rJSoY3dj2E2dMNGeclUfAIvXm6z7Qag9sqQF1lLVuMG6H4TSWnAhdTeX/mTh+pOnNEkTYnhdaqU5WrzRuh+EmAUX0gNrdfdJbdFpLwjVrXq11V1lB9FnT2mmvy8NpRaX2uBtglBaC244SqoafxZ2h2ZzC/OE4eMSXgKxrDtaT7LW1n4tEFp53kJ+a0Rba0VIOLcwI4OE2utYyRCSHkuZkAmZkAmZkMh7MSgQPtl8t0lM4d0mwdwioZqB+SL8NGz+vqT9Yz4Jaxt7zSmx1knbvevrwhZiemMNsOX72u7sIKbv22/tiDC4n5j3xSxZbL/x19X2vYnTtyTubVKa5dp4hKp48rDefttv6AvvvjwebtLVn7k2HqFqbe01ZpX4/aWtxYTOxYStxYTOxYStxYTOxYStxYTOxYStxYTOxYStxYTOxYStxYTOxYStxYTOxYStxYTOxYStxYTOZZyw+NPufYPX+7YGpgkPCsLz7ce50rj8y+Mmr3hY/GX3fqdLReXX6ZokDLr9rX+u3rWMdtJcHWqI0cAsYBCMIkqM/ejUNGAQXN76xkKNTszzsVgsFovFYrFYLBboPyZg8P9dp5BqAAAAAElFTkSuQmCC;" vertex="1" parent="1">
                    <mxGeometry x="380" y="140" width="65" height="65" as="geometry"/>
                </mxCell>
                <mxCell id="16" value="" style="shape=image;verticalLabelPosition=bottom;labelBackgroundColor=#ffffff;verticalAlign=top;aspect=fixed;imageAspect=0;image=https://encrypted-tbn0.gstatic.com/images?q=tbn:ANd9GcSjr7flVUnRRdJkp8ArEFOPgOhEuMVQ5ylWQA&amp;usqp=CAU;" vertex="1" parent="1">
                    <mxGeometry x="380" y="277.5" width="62.5" height="62.5" as="geometry"/>
                </mxCell>
                <mxCell id="18" value="Word" style="text;html=1;strokeColor=none;fillColor=none;align=center;verticalAlign=middle;whiteSpace=wrap;rounded=0;" vertex="1" parent="1">
                    <mxGeometry x="393" y="210" width="40" height="20" as="geometry"/>
                </mxCell>
                <mxCell id="19" value="PPT" style="text;html=1;strokeColor=none;fillColor=none;align=center;verticalAlign=middle;whiteSpace=wrap;rounded=0;" vertex="1" parent="1">
                    <mxGeometry x="391.25" y="350" width="40" height="20" as="geometry"/>
                </mxCell>
                <mxCell id="20" value="&lt;b&gt;&lt;font style=&quot;font-size: 17px&quot;&gt;Export your Looks to Report in Word/PPT format&lt;/font&gt;&lt;/b&gt;" style="text;html=1;strokeColor=none;fillColor=none;align=center;verticalAlign=middle;whiteSpace=wrap;rounded=0;" vertex="1" parent="1">
                    <mxGeometry x="-10" y="20" width="450" height="40" as="geometry"/>
                </mxCell>
            </root>
        </mxGraphModel>
    </diagram>
</mxfile>